<svg xmlns="http://www.w3.org/2000/svg" width="128.963" height="6.654" viewBox="0 0 128.963 6.654">
  <g id="Group_1984" data-name="Group 1984" transform="translate(-318.037 -684)">
    <g id="Group_1858" data-name="Group 1858" transform="translate(318.037 639.791)">
      <path id="Path_1128" data-name="Path 1128" d="M1174.875,317.468a3.327,3.327,0,1,1-3.328-3.327A3.328,3.328,0,0,1,1174.875,317.468Z" transform="translate(-1168.221 -269.932)" fill="#e9ba02"/>
      <path id="Path_1129" data-name="Path 1129" d="M1201.3,317.468a3.327,3.327,0,1,1-3.327-3.327A3.327,3.327,0,0,1,1201.3,317.468Z" transform="translate(-1169.994 -269.932)" fill="#e9ba02"/>
      <path id="Path_1130" data-name="Path 1130" d="M1227.73,317.468a3.327,3.327,0,1,1-3.327-3.327A3.327,3.327,0,0,1,1227.73,317.468Z" transform="translate(-1171.768 -269.932)" fill="#e9ba02"/>
    </g>
    <g id="Group_1859" data-name="Group 1859" transform="translate(391.037 639.791)">
      <path id="Path_1128-2" data-name="Path 1128" d="M1174.875,317.468a3.327,3.327,0,1,1-3.328-3.327A3.328,3.328,0,0,1,1174.875,317.468Z" transform="translate(-1168.221 -269.932)" fill="#e9ba02"/>
      <path id="Path_1129-2" data-name="Path 1129" d="M1201.3,317.468a3.327,3.327,0,1,1-3.327-3.327A3.327,3.327,0,0,1,1201.3,317.468Z" transform="translate(-1169.994 -269.932)" fill="#e9ba02"/>
      <path id="Path_1130-2" data-name="Path 1130" d="M1227.73,317.468a3.327,3.327,0,1,1-3.327-3.327A3.327,3.327,0,0,1,1227.73,317.468Z" transform="translate(-1171.768 -269.932)" fill="#e9ba02"/>
    </g>
  </g>
</svg>
